<?xml version="1.0" encoding="UTF-8"?>
<svg width="700pt" height="700pt" version="1.1" viewBox="0 0 700 700" xmlns="http://www.w3.org/2000/svg">
 <path d="m385 251.84 38.418-38.418c4.5547-4.5586 11.941-4.5586 16.5 0 4.5547 4.5547 4.5547 11.941 0 16.5l-38.418 38.414 38.418 38.418c4.5547 4.5547 4.5547 11.945 0 16.5-4.5586 4.5547-11.945 4.5547-16.5 0l-38.418-38.418-38.418 38.418c-4.5547 4.5547-11.941 4.5547-16.5 0-4.5547-4.5547-4.5547-11.945 0-16.5l38.418-38.418-38.418-38.414c-4.5547-4.5586-4.5547-11.945 0-16.5 4.5586-4.5586 11.945-4.5586 16.5 0zm163.33 168.16h-303.33c-3.0938 0-6.0625-1.2305-8.25-3.418l-140-140c-4.5547-4.5547-4.5547-11.941 0-16.5l140-140c2.1875-2.1875 5.1562-3.4141 8.25-3.4141h303.33c6.4453 0 11.668 5.2227 11.668 11.664v280c0 6.4453-5.2227 11.668-11.668 11.668zm-11.664-23.332v-256.67h-286.84l-128.33 128.33 128.33 128.34z"/>
</svg>
